Coordinates
version=1
nRows=60
nColumns=12
inDegrees=yes

Units are S.I. units (second, meters, Newtons, ...)
Angles are in degrees

endheader
time	SC_y	SC_z	SC_x	AC_y	AC_z	AC_x	GH_y	GH_z	GH_yy	EL_x	PS_y
       0.0              -17.04           24.6          67.81          54.39         -18.86         -8.721         -33.03          82.96         -161.3          86.07          148.2
   0.04646              -17.04          24.59           67.8          54.39         -18.86         -8.717         -33.05          82.96         -161.2          86.08          148.2
   0.09292              -17.04          24.59           67.8          54.39         -18.86         -8.713         -33.06          82.95         -161.2          86.08          148.2
    0.1394              -17.04          24.59          67.79          54.38         -18.85         -8.709         -33.07          82.95         -161.2          86.08          148.2
    0.1858              -17.04          24.58          67.78          54.38         -18.85         -8.705         -33.08          82.94         -161.2          86.09          148.2
    0.2323              -17.04          24.58          67.77          54.37         -18.84         -8.701          -33.1          82.94         -161.2          86.09          148.2
    0.2788              -17.04          24.57          67.76          54.37         -18.84         -8.696         -33.11          82.93         -161.2           86.1          148.2
    0.3252              -17.04          24.56          67.75          54.36         -18.84         -8.691         -33.13          82.93         -161.1          86.11          148.1
    0.3717              -17.04          24.56          67.74          54.36         -18.83         -8.685         -33.15          82.92         -161.1          86.11          148.1
    0.4181              -17.03          24.55          67.73          54.35         -18.83         -8.679         -33.16          82.91         -161.1          86.12          148.1
    0.4646              -17.03          24.54          67.71          54.35         -18.82         -8.673         -33.18          82.91         -161.1          86.13          148.1
    0.5111              -17.03          24.54           67.7          54.34         -18.81         -8.666         -33.21           82.9         -161.0          86.14          148.1
    0.5575              -17.03          24.53          67.68          54.33         -18.81         -8.659         -33.23          82.89         -161.0          86.15          148.1
     0.604              -17.03          24.52          67.67          54.32          -18.8         -8.651         -33.25          82.88         -161.0          86.16          148.0
    0.6505              -17.03          24.51          67.65          54.32         -18.79         -8.642         -33.28          82.87         -160.9          86.17          148.0
    0.6969              -17.02           24.5          67.63          54.31         -18.78         -8.633         -33.31          82.86         -160.9          86.18          148.0
    0.7434              -17.02          24.49          67.61           54.3         -18.78         -8.623         -33.34          82.85         -160.8          86.19          148.0
    0.7898              -17.02          24.48          67.59          54.28         -18.77         -8.612         -33.38          82.83         -160.8           86.2          148.0
    0.8363              -17.02          24.46          67.56          54.27         -18.76           -8.6         -33.42          82.82         -160.7          86.22          147.9
    0.8828              -17.01          24.45          67.54          54.26         -18.74         -8.587         -33.46           82.8         -160.7          86.23          147.9
    0.9292              -17.01          24.43          67.51          54.24         -18.73         -8.572          -33.5          82.78         -160.6          86.25          147.9
    0.9757              -17.01          24.41          67.47          54.23         -18.72         -8.556         -33.56          82.77         -160.5          86.27          147.8
     1.022               -17.0          24.39          67.44          54.21          -18.7         -8.539         -33.61          82.74         -160.5          86.29          147.8
     1.069               -17.0          24.37           67.4          54.19         -18.68         -8.519         -33.67          82.72         -160.4          86.31          147.7
     1.115               -17.0          24.35          67.35          54.17         -18.67         -8.497         -33.74          82.69         -160.3          86.34          147.7
     1.162              -16.99          24.32           67.3          54.14         -18.64         -8.473         -33.82          82.67         -160.2          86.37          147.6
     1.208              -16.99          24.29          67.25          54.12         -18.62         -8.446          -33.9          82.63         -160.1           86.4          147.5
     1.254              -16.98          24.26          67.18          54.09         -18.59         -8.416          -34.0           82.6         -159.9          86.44          147.5
     1.301              -16.97          24.22          67.11          54.05         -18.56         -8.381         -34.11          82.55         -159.8          86.48          147.4
     1.347              -16.96          24.18          67.03          54.01         -18.53         -8.342         -34.23          82.51         -159.6          86.53          147.3
     1.394              -16.95          24.13          66.94          53.97         -18.49         -8.297         -34.38          82.45         -159.4          86.58          147.2
      1.44              -16.94          24.07          66.83          53.92         -18.44         -8.246         -34.54          82.39         -159.2          86.64          147.1
     1.487              -16.93           24.0          66.71          53.86         -18.39         -8.187         -34.72          82.32         -158.9          86.72          146.9
     1.533              -16.92          23.93          66.57          53.79         -18.33         -8.118         -34.94          82.24         -158.6           86.8          146.7
      1.58               -16.9          23.84          66.41          53.71         -18.26         -8.038          -35.2          82.14         -158.3           86.9          146.5
     1.626              -16.88          23.73          66.21          53.61         -18.18         -7.943          -35.5          82.03         -157.9          87.01          146.3
     1.673              -16.86           23.6          65.98           53.5         -18.08          -7.83         -35.85          81.89         -157.4          87.15          146.0
     1.719              -16.83          23.45           65.7          53.36         -17.96         -7.695         -36.28          81.73         -156.8          87.31          145.7
     1.766              -16.79          23.27          65.36          53.19         -17.81         -7.532          -36.8          81.53         -156.1          87.51          145.3
     1.812              -16.75          23.05          64.95          52.99         -17.64         -7.332         -37.43          81.29         -155.2          87.75          144.8
     1.858               -16.7          22.77          64.45          52.74         -17.42         -7.086         -38.21           81.0         -154.1          88.04          144.2
     1.905              -16.63          22.43          63.81          52.43         -17.15         -6.779         -39.19          80.63         -152.8          88.42          143.5
     1.951              -16.55           22.0          63.02          52.04         -16.81         -6.392         -40.41          80.16         -151.1          88.88          142.5
     1.998              -16.45          21.45           62.0          51.55         -16.38           -5.9         -41.97          79.57         -149.0          89.48          141.3
     2.044              -16.32          20.74          60.71          50.91         -15.82          -5.27         -43.97          78.81         -146.2          90.24          139.8
     2.091              -16.15          19.84          59.04           50.1         -15.11         -4.462         -46.53          77.84         -142.7          91.21          137.8
     2.137              -15.93          18.69          56.92          49.06          -14.2         -3.429          -49.8           76.6         -138.2          92.46          135.3
     2.184              -15.65          17.24          54.24          47.75         -13.06         -2.131         -53.91          75.04         -132.6          94.03          132.1
      2.23              -15.32          15.47          50.99          46.15         -11.67        -0.5495         -58.92          73.14         -125.7          95.94          128.3
     2.277              -14.93          13.42          47.21           44.3         -10.05          1.284         -64.73          70.93         -117.7          98.15          123.8
     2.323              -14.52           11.2          43.13           42.3         -8.305          3.269         -71.02          68.54         -109.1          100.5          118.9
     2.369               -14.1          8.987          39.04          40.29         -6.557          5.254         -77.31          66.15         -100.4          102.9          114.1
     2.416              -13.71          6.939          35.26          38.44         -4.943          7.088         -83.12          63.95         -92.46          105.2          109.6
     2.462              -13.38          5.172          32.01          36.85          -3.55           8.67         -88.13          62.05         -85.58          107.1          105.8
     2.509               -13.1          3.722          29.34          35.54         -2.407          9.968         -92.24          60.49         -79.93          108.6          102.6
     2.555              -12.89          2.569          27.21           34.5         -1.498           11.0         -95.51          59.24         -75.44          109.9          100.1
     2.602              -12.72          1.666          25.55          33.68        -0.7866          11.81         -98.07          58.27         -71.92          110.9           98.1
     2.648              -12.58          0.963          24.25          33.04        -0.2321          12.44         -100.1          57.51         -69.18          111.6          96.57
     2.695              -12.48         0.4134          23.24          32.55         0.2011          12.93         -101.6          56.92         -67.04          112.2          95.37
     2.741               -12.4       -0.01898          22.44          32.16         0.5419          13.32         -102.9          56.46         -65.36          112.7          94.42
